<?xml version="1.0" encoding="utf-8"?>
<svg xmlns="http://www.w3.org/2000/svg" xmlns:xlink="http://www.w3.org/1999/xlink" style="margin: auto; background: none; display: block; shape-rendering: auto;" width="157px" height="157px" viewBox="0 0 100 100" preserveAspectRatio="xMidYMid">
<g transform="rotate(0 50 50)">
  <rect x="46" y="20.5" rx="0" ry="0" width="8" height="19" fill="#e4812f">
    <animate attributeName="opacity" values="1;0" keyTimes="0;1" dur="2.6315789473684212s" begin="-2.3391812865497075s" repeatCount="indefinite"></animate>
  </rect>
</g><g transform="rotate(40 50 50)">
  <rect x="46" y="20.5" rx="0" ry="0" width="8" height="19" fill="#e4812f">
    <animate attributeName="opacity" values="1;0" keyTimes="0;1" dur="2.6315789473684212s" begin="-2.046783625730994s" repeatCount="indefinite"></animate>
  </rect>
</g><g transform="rotate(80 50 50)">
  <rect x="46" y="20.5" rx="0" ry="0" width="8" height="19" fill="#e4812f">
    <animate attributeName="opacity" values="1;0" keyTimes="0;1" dur="2.6315789473684212s" begin="-1.7543859649122808s" repeatCount="indefinite"></animate>
  </rect>
</g><g transform="rotate(120 50 50)">
  <rect x="46" y="20.5" rx="0" ry="0" width="8" height="19" fill="#e4812f">
    <animate attributeName="opacity" values="1;0" keyTimes="0;1" dur="2.6315789473684212s" begin="-1.4619883040935673s" repeatCount="indefinite"></animate>
  </rect>
</g><g transform="rotate(160 50 50)">
  <rect x="46" y="20.5" rx="0" ry="0" width="8" height="19" fill="#e4812f">
    <animate attributeName="opacity" values="1;0" keyTimes="0;1" dur="2.6315789473684212s" begin="-1.1695906432748537s" repeatCount="indefinite"></animate>
  </rect>
</g><g transform="rotate(200 50 50)">
  <rect x="46" y="20.5" rx="0" ry="0" width="8" height="19" fill="#e4812f">
    <animate attributeName="opacity" values="1;0" keyTimes="0;1" dur="2.6315789473684212s" begin="-0.8771929824561404s" repeatCount="indefinite"></animate>
  </rect>
</g><g transform="rotate(240 50 50)">
  <rect x="46" y="20.5" rx="0" ry="0" width="8" height="19" fill="#e4812f">
    <animate attributeName="opacity" values="1;0" keyTimes="0;1" dur="2.6315789473684212s" begin="-0.5847953216374269s" repeatCount="indefinite"></animate>
  </rect>
</g><g transform="rotate(280 50 50)">
  <rect x="46" y="20.5" rx="0" ry="0" width="8" height="19" fill="#e4812f">
    <animate attributeName="opacity" values="1;0" keyTimes="0;1" dur="2.6315789473684212s" begin="-0.29239766081871343s" repeatCount="indefinite"></animate>
  </rect>
</g><g transform="rotate(320 50 50)">
  <rect x="46" y="20.5" rx="0" ry="0" width="8" height="19" fill="#e4812f">
    <animate attributeName="opacity" values="1;0" keyTimes="0;1" dur="2.6315789473684212s" begin="0s" repeatCount="indefinite"></animate>
  </rect>
</g>
<!-- [ldio] generated by https://loading.io/ --></svg>